HIERARCHY
ROOT root
{
	OFFSET 0.000000 0.000000 0.000000
	CHANNELS 6 Xposition Yposition Zposition Zrotation Yrotation Xrotation
	JOINT lhip
	{
		OFFSET 0.058581 -0.082280 -0.017664
		CHANNELS 3 Zrotation Yrotation Xrotation
		JOINT lknee
		{
			OFFSET 0.043451 -0.386469 0.008037
			CHANNELS 3 Zrotation Yrotation Xrotation
			JOINT lankle
			{
				OFFSET -0.014790 -0.426874 -0.037428
				CHANNELS 3 Zrotation Yrotation Xrotation
				JOINT ltoe
				{
					OFFSET 0.041054 -0.060286 0.122042
					CHANNELS 3 Zrotation Yrotation Xrotation
					End Site
					{
						OFFSET 0.000000 0.000000 0.000000
					}
				}
			}
		}
	}
	JOINT rhip
	{
		OFFSET -0.060310 -0.090513 -0.013543
		CHANNELS 3 Zrotation Yrotation Xrotation
		JOINT rknee
		{
			OFFSET -0.043257 -0.383688 -0.004843
			CHANNELS 3 Zrotation Yrotation Xrotation
			JOINT rankle
			{
				OFFSET 0.019056 -0.420046 -0.034562
				CHANNELS 3 Zrotation Yrotation Xrotation
				JOINT rtoe
				{
					OFFSET -0.034840 -0.062106 0.130323
					CHANNELS 3 Zrotation Yrotation Xrotation
					End Site
					{
						OFFSET 0.000000 0.000000 0.000000
					}
				}
			}
		}
	}
	JOINT lowerback
	{
		OFFSET 0.004439 0.124404 -0.038385
		CHANNELS 3 Zrotation Yrotation Xrotation
		JOINT upperback
		{
			OFFSET 0.004488 0.137956 0.026820
			CHANNELS 3 Zrotation Yrotation Xrotation
			JOINT chest
			{
				OFFSET -0.002265 0.056032 0.002855
				CHANNELS 3 Zrotation Yrotation Xrotation
				JOINT lowerneck
				{
					OFFSET -0.013390 0.211636 -0.033468
					CHANNELS 3 Zrotation Yrotation Xrotation
					JOINT upperneck
					{
						OFFSET 0.010113 0.088937 0.050410
						CHANNELS 3 Zrotation Yrotation Xrotation
						End Site
						{
							OFFSET 0.000000 0.000000 0.000000
						}
					}
				}
				JOINT lclavicle
				{
					OFFSET 0.071702 0.114000 -0.018898
					CHANNELS 3 Zrotation Yrotation Xrotation
					JOINT lshoulder
					{
						OFFSET 0.122921 0.045205 -0.019046
						CHANNELS 3 Zrotation Yrotation Xrotation
						JOINT lelbow
						{
							OFFSET 0.255332 -0.015649 -0.022946
							CHANNELS 3 Zrotation Yrotation Xrotation
							JOINT lwrist
							{
								OFFSET 0.265709 0.012698 -0.007375
								CHANNELS 3 Zrotation Yrotation Xrotation
								End Site
								{
									OFFSET 0.000000 0.000000 0.000000
								}
							}
						}
					}
				}
				JOINT rclavicle
				{
					OFFSET -0.082954 0.112472 -0.023707
					CHANNELS 3 Zrotation Yrotation Xrotation
					JOINT rshoulder
					{
						OFFSET -0.113228 0.046853 -0.008472
						CHANNELS 3 Zrotation Yrotation Xrotation
						JOINT relbow
						{
							OFFSET -0.260127 -0.014369 -0.031269
							CHANNELS 3 Zrotation Yrotation Xrotation
							JOINT rwrist
							{
								OFFSET -0.269108 0.006794 -0.006027
								CHANNELS 3 Zrotation Yrotation Xrotation
								End Site
								{
									OFFSET 0.000000 0.000000 0.000000
								}
							}
						}
					}
				}
			}
		}
	}
}
MOTION
Frames: 8
Frame Time: 0.033333
0.546681 0.460103 0.632958 -89.554656 -12.622682 -18.553907 6.664068 11.544339 27.768292 -2.624330 -12.974389 -12.790881 -1.953647 11.528217 4.980290 0.000000 -0.000000 0.000000 5.835665 -1.617465 26.601876 6.217509 28.676660 26.167338 17.344909 -2.490959 18.888673 0.000000 -0.000000 0.000000 2.150083 0.673364 30.978635 0.248894 -4.126950 -16.662624 1.854144 -0.942551 14.747797 -7.750174 22.565039 33.020423 -0.916251 -6.844880 -13.038134 35.151900 -3.734626 -21.020112 -3.095925 -52.804539 -19.777941 2.188122 10.454938 6.587397 5.398446 -15.739796 -22.031233 -16.631043 -13.252645 -15.111327 58.561148 -23.055107 2.885259 17.208347 45.011158 29.192683 -5.387021 14.834546 -29.042153 
0.544069 0.463928 0.637591 -88.089974 -12.597755 -19.837912 7.003228 11.533230 32.344798 -2.227614 -15.448871 -13.084382 -2.227028 11.419718 5.151249 0.000000 -0.000000 0.000000 5.988561 -1.352876 26.002694 5.807106 27.640870 24.453472 16.897051 -3.328723 19.097952 0.000000 -0.000000 0.000000 1.691848 0.585920 30.976377 0.457342 -2.903942 -14.400310 1.717153 -0.716621 13.820507 -6.117191 23.215569 35.852104 -1.665651 -8.606624 -13.689138 34.638902 0.253641 -21.286835 2.484805 -54.130260 -21.967356 2.317396 8.686066 8.208269 6.119391 -16.843911 -20.294641 -16.723541 -13.568504 -14.506615 61.084686 -22.843850 5.656246 14.178214 37.338734 26.426667 -6.757241 13.100980 -33.734680 
0.540172 0.466425 0.643941 -86.803167 -12.661432 -22.158017 7.624767 11.674752 38.574351 -1.915844 -17.123105 -11.605906 -2.561443 11.867769 7.383972 0.000000 -0.000000 0.000000 5.506840 -2.262336 26.562667 4.282417 26.985900 19.878067 15.264574 -4.414648 17.264439 0.000000 -0.000000 0.000000 1.805509 0.712254 31.649699 0.395772 -1.883493 -11.541718 2.087857 -0.752843 12.842778 -4.418933 23.289037 37.809598 -2.703778 -9.963145 -13.650338 33.478266 3.132121 -22.022877 9.977726 -53.361016 -26.614056 1.208328 6.328771 7.865481 6.004805 -17.333941 -17.603721 -16.531983 -12.967518 -14.256446 61.850904 -22.145296 7.395118 13.195114 29.683158 22.706695 -5.466880 11.612176 -35.840434 
0.535012 0.467241 0.651256 -85.434081 -12.283677 -24.613216 7.483269 11.018113 45.353881 -1.405964 -19.636962 -7.705364 -3.617326 12.018442 12.539459 0.000000 -0.000000 0.000000 4.543583 -3.968947 26.656209 1.945922 24.468236 13.425561 11.801260 -5.779894 12.760044 0.000000 -0.000000 0.000000 1.919176 0.725395 32.578376 0.404407 -0.859921 -9.106458 2.998721 -0.800408 12.393184 -3.161997 23.273954 41.063879 -2.489893 -12.061590 -18.232549 32.923449 6.514979 -24.134623 17.041235 -52.207870 -31.391823 0.960397 5.212907 6.491924 2.432190 -18.646029 -13.072406 -16.593454 -11.388284 -14.778835 62.107204 -21.405410 9.361678 12.509963 19.936122 19.582683 0.969439 11.957672 -35.233491 
0.532276 0.466610 0.654535 -84.712812 -12.150526 -25.651826 6.412858 10.073444 48.296638 -1.437001 -21.300796 -4.545220 -4.670491 11.876950 14.687636 0.000000 -0.000000 0.000000 3.952028 -4.862402 26.469589 0.865925 22.630245 9.860411 10.386973 -6.515931 9.988558 0.000000 -0.000000 0.000000 2.180538 0.813190 33.016322 0.506291 -0.309711 -7.966152 3.490671 -0.661272 12.200347 -2.784952 23.412486 42.384472 -2.172380 -13.427501 -20.664261 33.078817 8.346397 -25.148911 20.858790 -51.369064 -34.591553 1.792772 5.711636 5.930703 -1.126203 -18.889134 -7.950775 -16.516454 -10.132301 -14.566629 62.456811 -21.162435 9.767202 11.578178 15.823632 18.585362 6.096789 12.887617 -32.370692 
0.528872 0.465348 0.658283 -83.523463 -11.897150 -26.737731 5.468160 9.644415 50.752597 -3.133593 -23.657133 1.366783 -5.971232 10.814095 15.684465 0.000000 -0.000000 0.000000 2.435193 -6.303279 26.838021 -0.118175 21.126741 4.722262 9.808406 -7.069543 7.717888 0.000000 -0.000000 0.000000 2.271495 1.260462 33.628069 0.826418 0.210334 -6.603942 4.141127 -0.282960 11.313452 -1.562195 23.694511 42.498926 -3.164124 -14.894044 -18.331768 32.873557 10.271367 -25.311871 26.966420 -49.325308 -39.887194 2.814403 6.259168 5.229529 -4.674959 -18.191638 0.235870 -15.989181 -8.696374 -13.211347 62.851361 -20.458155 8.981025 10.235333 11.754977 15.285767 11.801700 13.443828 -29.791335 
0.525333 0.464012 0.662591 -82.067252 -11.719768 -28.063428 6.313365 10.409115 52.223028 -5.904281 -23.207988 7.762089 -7.907614 9.620064 20.102559 0.000000 -0.000000 0.000000 0.006976 -7.997607 29.033502 -0.836309 20.938403 -0.810846 9.838714 -6.154633 5.687394 0.000000 -0.000000 0.000000 2.078557 2.176521 34.432985 0.978444 0.339672 -5.579906 4.861643 -0.042348 11.181599 -0.185444 24.518706 44.078963 -3.142148 -16.842431 -19.709677 32.698769 12.699625 -25.693806 32.007898 -46.196135 -43.577614 2.888306 5.414087 3.711576 -5.550889 -17.824172 4.041919 -15.085622 -7.876896 -12.700860 63.223477 -19.359212 7.804984 9.110744 8.187813 8.338811 14.493431 13.538123 -30.968062 
0.522601 0.461270 0.664844 -80.656696 -11.616530 -28.862648 7.692189 11.275004 52.108711 -7.845086 -21.600056 11.567658 -9.819132 8.682079 26.118360 0.000000 -0.000000 0.000000 -1.988692 -8.484637 31.717293 -1.275539 22.837675 -4.701008 9.394380 -4.297919 2.371107 0.000000 -0.000000 0.000000 1.926270 3.105499 35.133260 0.936320 0.288408 -5.139180 5.473118 0.184066 10.970562 1.484825 25.174659 45.372475 -3.607683 -18.201216 -19.821115 32.575972 15.088819 -26.443735 35.930122 -43.735002 -46.965922 3.336465 5.077323 -0.176167 -7.993237 -17.389040 5.619809 -14.543266 -7.497874 -12.344598 64.050447 -17.803918 8.145417 7.704833 5.572434 4.524027 18.057317 13.367853 -31.256537 
